<svg width="120" height="24" viewBox="0 0 120 24" fill="none" xmlns="http://www.w3.org/2000/svg">
<path d="M6 0H12L6 24H0L6 0Z" fill="white"/>
<path d="M18 0H24L18 24H12L18 0Z" fill="white"/>
<path d="M30 0H36L30 24H24L30 0Z" fill="white"/>
<path d="M42 0H48L42 24H36L42 0Z" fill="white"/>
<path d="M54 0H60L54 24H48L54 0Z" fill="white"/>
<path d="M66 0H72L66 24H60L66 0Z" fill="white"/>
<path d="M78 0H84L78 24H72L78 0Z" fill="white"/>
<path d="M90 0H96L90 24H84L90 0Z" fill="white"/>
<path d="M102 0H108L102 24H96L102 0Z" fill="white"/>
<path d="M114 0H120L114 24H108L114 0Z" fill="white"/>
</svg>
