<svg width="300" height="300" viewBox="0 0 300 300" fill="none" xmlns="http://www.w3.org/2000/svg">
<path d="M149.999 43.9349H156.06L153.029 62.1176H146.969L149.999 43.9349Z" fill="#A1A1A1"/>
<path d="M140.755 44.3386L146.793 43.8103L145.358 62.188L139.321 62.7162L140.755 44.3386Z" fill="#A1A1A1"/>
<path d="M131.581 45.5463L137.55 44.4938L137.723 62.9265L131.754 63.979L131.581 45.5463Z" fill="#A1A1A1"/>
<path d="M122.548 47.549L128.402 45.9803L130.181 64.3278L124.326 65.8965L122.548 47.549Z" fill="#A1A1A1"/>
<path d="M113.723 50.3314L119.418 48.2585L122.789 66.3811L117.094 68.4541L113.723 50.3314Z" fill="#A1A1A1"/>
<path d="M105.174 53.8724L110.667 51.311L115.605 69.0708L110.112 71.6323L105.174 53.8724Z" fill="#A1A1A1"/>
<path d="M96.9667 58.1449L102.216 55.1145L108.683 72.3764L103.434 75.4068L96.9667 58.1449Z" fill="#A1A1A1"/>
<path d="M89.1628 63.1165L94.1276 59.6402L102.074 76.2727L97.1096 79.7491L89.1628 63.1165Z" fill="#A1A1A1"/>
<path d="M81.8219 68.7494L86.4649 64.8535L95.831 80.7302L91.1881 84.6261L81.8219 68.7494Z" fill="#A1A1A1"/>
<path d="M74.9998 75.0006L79.2855 70.7149L89.9998 85.7149L85.714 90.0006L74.9998 75.0006Z" fill="#A1A1A1"/>
<path d="M68.7487 81.8226L72.6446 77.1797L84.6254 91.1888L80.7295 95.8317L68.7487 81.8226Z" fill="#A1A1A1"/>
<path d="M63.1156 89.1635L66.592 84.1987L79.7482 97.1103L76.2718 102.075L63.1156 89.1635Z" fill="#A1A1A1"/>
<path d="M58.1441 96.9674L61.1746 91.7185L75.406 103.434L72.3756 108.683L58.1441 96.9674Z" fill="#A1A1A1"/>
<path d="M53.8718 105.175L56.4332 99.6818L71.6316 110.113L69.0702 115.606L53.8718 105.175Z" fill="#A1A1A1"/>
<path d="M50.3307 113.723L52.4036 108.028L68.4533 117.095L66.3803 122.79L50.3307 113.723Z" fill="#A1A1A1"/>
<path d="M47.5485 122.548L49.1172 116.694L65.896 124.327L64.3273 130.181L47.5485 122.548Z" fill="#A1A1A1"/>
<path d="M45.5458 131.582L46.5982 125.613L63.9785 131.755L62.926 137.724L45.5458 131.582Z" fill="#A1A1A1"/>
<path d="M44.3381 140.756L44.8663 134.718L62.7157 139.321L62.1875 145.359L44.3381 140.756Z" fill="#A1A1A1"/>
<path d="M43.9346 150L43.9346 143.939L62.1173 146.969L62.1173 153.03L43.9346 150Z" fill="#A1A1A1"/>
<path d="M44.3382 159.244L43.8099 153.206L62.1876 154.64L62.7158 160.678L44.3382 159.244Z" fill="#A1A1A1"/>
<path d="M45.5458 168.418L44.4933 162.449L62.926 162.276L63.9785 168.245L45.5458 168.418Z" fill="#A1A1A1"/>
<path d="M159.245 44.3375L165.282 44.8657L160.679 62.7151L154.641 62.1869L159.245 44.3375Z" fill="#A1A1A1"/>
<path d="M168.418 45.5452L174.387 46.5977L168.246 63.9779L162.277 62.9255L168.418 45.5452Z" fill="#A1A1A1"/>
<path d="M177.452 47.548L183.306 49.1167L175.673 65.8955L169.819 64.3268L177.452 47.548Z" fill="#A1A1A1"/>
<path d="M186.277 50.3305L191.973 52.4034L182.906 68.4531L177.211 66.3801L186.277 50.3305Z" fill="#A1A1A1"/>
<path d="M194.826 53.8714L200.319 56.4329L189.888 71.6313L184.395 69.0698L194.826 53.8714Z" fill="#A1A1A1"/>
<path d="M203.033 58.144L208.282 61.1745L196.566 75.4059L191.317 72.3755L203.033 58.144Z" fill="#A1A1A1"/>
<path d="M210.837 63.1156L215.802 66.592L202.89 79.7482L197.926 76.2718L210.837 63.1156Z" fill="#A1A1A1"/>
<path d="M218.178 68.7486L222.821 72.6444L208.812 84.6253L204.169 80.7294L218.178 68.7486Z" fill="#A1A1A1"/>
<path d="M225 74.9998L229.286 79.2855L214.286 89.9998L210 85.7141L225 74.9998Z" fill="#A1A1A1"/>
<path d="M231.251 81.8219L235.147 86.4648L219.271 95.8309L215.375 91.188L231.251 81.8219Z" fill="#A1A1A1"/>
<path d="M236.884 89.1628L240.361 94.1276L223.728 102.074L220.252 97.1095L236.884 89.1628Z" fill="#A1A1A1"/>
<path d="M241.856 96.9667L244.887 102.216L227.625 108.683L224.594 103.434L241.856 96.9667Z" fill="#A1A1A1"/>
<path d="M246.129 105.174L248.69 110.667L230.93 115.605L228.369 110.112L246.129 105.174Z" fill="#A1A1A1"/>
<path d="M249.67 113.723L251.742 119.418L233.62 122.79L231.547 117.094L249.67 113.723Z" fill="#A1A1A1"/>
<path d="M252.452 122.548L254.02 128.402L235.673 130.181L234.104 124.327L252.452 122.548Z" fill="#A1A1A1"/>
<path d="M254.455 131.581L255.507 137.55L237.074 137.723L236.022 131.754L254.455 131.581Z" fill="#A1A1A1"/>
<path d="M255.662 140.755L256.191 146.793L237.813 145.359L237.285 139.321L255.662 140.755Z" fill="#A1A1A1"/>
<path d="M256.066 150L256.066 156.06L237.883 153.03L237.883 146.969L256.066 150Z" fill="#A1A1A1"/>
<path d="M255.662 159.244L255.134 165.282L237.285 160.678L237.813 154.64L255.662 159.244Z" fill="#A1A1A1"/>
</svg>
